<svg width="50" height="29" viewBox="0 0 50 29" fill="none" xmlns="http://www.w3.org/2000/svg">
<g clip-path="url(#clip0_1978_172)">
<path d="M25.3299 17.87L21.0899 23.17C20.7999 23.55 16.9999 28.39 12.4199 28.39C11.4957 28.4032 10.5781 28.2333 9.7199 27.8901C8.86172 27.5468 8.08002 27.037 7.41992 26.39C6.65275 25.6201 6.04568 24.7059 5.63375 23.7001C5.22182 22.6943 5.0132 21.6169 5.01992 20.53V12.55C5.02008 12.0096 4.80886 11.4905 4.43141 11.1037C4.05396 10.7169 3.5402 10.4931 2.99992 10.48H1.41992C1.2241 10.4965 1.02699 10.4721 0.841065 10.4085C0.65514 10.3449 0.484446 10.2433 0.339783 10.1103C0.19512 9.97734 0.0796374 9.81575 0.000642322 9.63582C-0.0783527 9.45588 -0.119141 9.26151 -0.119141 9.065C-0.119141 8.86849 -0.0783527 8.67411 0.000642322 8.49418C0.0796374 8.31424 0.19512 8.15266 0.339783 8.01966C0.484446 7.88666 0.65514 7.78513 0.841065 7.7215C1.02699 7.65787 1.2241 7.63352 1.41992 7.65H2.99992C4.29948 7.65 5.54581 8.16625 6.46474 9.08518C7.38367 10.0041 7.89992 11.2504 7.89992 12.55V20.48C7.89063 21.9161 8.45171 23.2972 9.45992 24.32C9.85064 24.7181 10.3178 25.0332 10.8333 25.2463C11.3488 25.4594 11.9021 25.5661 12.4599 25.56C15.1499 25.56 18.0099 22.56 18.8899 21.44L23.8899 15.21L25.3299 17.87Z" fill="url(#paint0_linear_1978_172)"/>
<path d="M49.9999 27.03C49.9999 27.4066 49.8503 27.7678 49.584 28.0341C49.3177 28.3004 48.9565 28.45 48.5799 28.45C47.7997 28.5011 47.0177 28.3827 46.2876 28.1031C45.5574 27.8234 44.8964 27.3891 44.3499 26.83C43.489 25.8234 43.0517 24.5223 43.1299 23.2V15.12C43.1384 13.3633 42.4727 11.6704 41.2699 10.39C39.3399 8.39 36.1699 8.53 35.2699 8.63C32.7199 8.89 29.6799 12.39 28.7199 13.72V13.77L25.3999 17.91L23.9299 15.22L26.4799 12.02C27.2418 11.0066 28.081 10.0538 28.9899 9.17C31.1099 7.17 33.1399 6 34.9899 5.8C36.2499 5.67 40.5399 5.49 43.3599 8.43C45.0664 10.2382 46.0118 12.6337 45.9999 15.12V23.39C45.9766 23.9514 46.1578 24.5021 46.5099 24.94C46.7959 25.1925 47.1309 25.3833 47.4939 25.5003C47.857 25.6173 48.2404 25.6581 48.6199 25.62C48.9878 25.6304 49.3374 25.7832 49.5948 26.0462C49.8522 26.3092 49.9975 26.662 49.9999 27.03Z" fill="url(#paint1_linear_1978_172)"/>
<path style="mix-blend-mode:overlay" d="M25.25 17.97L22.45 21.47L21 18.8L23.81 15.29L25.25 17.97Z" fill="url(#paint2_linear_1978_172)"/>
<path style="mix-blend-mode:overlay" d="M28.6199 13.76L26.4099 16.53C25.9399 15.68 25.4099 14.78 24.9199 13.84L26.4099 11.98C26.4899 11.88 26.7399 11.55 27.1199 11.08L28.6199 13.76Z" fill="url(#paint3_linear_1978_172)"/>
<path d="M40.1899 26.99C40.1886 27.1752 40.1508 27.3583 40.0788 27.5288C40.0067 27.6994 39.9017 27.8541 39.7699 27.9841C39.638 28.1141 39.4818 28.2169 39.3103 28.2865C39.1387 28.3562 38.9551 28.3913 38.7699 28.39C37.3528 28.3984 35.9375 28.2847 34.5399 28.05C30.4399 27.35 27.1199 23.74 25.3699 20.52L24.4899 18.91C24.0299 18.06 23.4899 17.16 23.0099 16.22L21.5099 13.52C20.8151 12.2811 19.8535 11.2121 18.6947 10.3906C17.536 9.56907 16.209 9.01551 14.8099 8.77C13.3675 8.46333 11.885 8.39241 10.4199 8.56C10.0716 8.5722 9.73094 8.45587 9.46283 8.23316C9.19473 8.01044 9.0179 7.69691 8.96602 7.35225C8.91414 7.00759 8.99082 6.65589 9.18147 6.36412C9.37213 6.07235 9.66343 5.86089 9.99991 5.77C11.7671 5.56237 13.556 5.63663 15.2999 5.99C17.1147 6.31128 18.8359 7.03022 20.3401 8.09523C21.8442 9.16024 23.0941 10.5449 23.9999 12.15C24.3199 12.73 24.6399 13.29 24.9399 13.84C25.4699 14.78 25.9399 15.68 26.4299 16.53C26.9199 17.38 27.4299 18.36 27.8799 19.19C29.2499 21.7 31.9399 24.74 35.0399 25.28C36.2792 25.486 37.5337 25.5864 38.7899 25.58C39.1621 25.5826 39.5182 25.7324 39.7805 25.9965C40.0427 26.2606 40.1899 26.6178 40.1899 26.99Z" fill="url(#paint4_linear_1978_172)"/>
<path d="M2.38001 4.74C3.68892 4.74 4.75001 3.67891 4.75001 2.37C4.75001 1.06108 3.68892 0 2.38001 0C1.07109 0 0.0100098 1.06108 0.0100098 2.37C0.0100098 3.67891 1.07109 4.74 2.38001 4.74Z" fill="url(#paint5_linear_1978_172)"/>
</g>
<defs>
<linearGradient id="paint0_linear_1978_172" x1="-0.160082" y1="11.85" x2="20.6699" y2="23.77" gradientUnits="userSpaceOnUse">
<stop stop-color="#0C79FF"/>
<stop offset="1" stop-color="#7400DD"/>
</linearGradient>
<linearGradient id="paint1_linear_1978_172" x1="26.2599" y1="8.07" x2="49.2899" y2="22.07" gradientUnits="userSpaceOnUse">
<stop stop-color="#0C79FF"/>
<stop offset="1" stop-color="#7400DD"/>
</linearGradient>
<linearGradient id="paint2_linear_1978_172" x1="24.14" y1="17.29" x2="21.87" y2="19.7" gradientUnits="userSpaceOnUse">
<stop/>
<stop offset="1" stop-opacity="0"/>
</linearGradient>
<linearGradient id="paint3_linear_1978_172" x1="24.9899" y1="15.23" x2="27.7699" y2="12.99" gradientUnits="userSpaceOnUse">
<stop/>
<stop offset="1" stop-opacity="0"/>
</linearGradient>
<linearGradient id="paint4_linear_1978_172" x1="12.4499" y1="5.55" x2="31.4699" y2="23.77" gradientUnits="userSpaceOnUse">
<stop stop-color="#0CC2FF"/>
<stop offset="1" stop-color="#0063FF"/>
</linearGradient>
<linearGradient id="paint5_linear_1978_172" x1="0.48001" y1="0.48" x2="4.50001" y2="4.5" gradientUnits="userSpaceOnUse">
<stop stop-color="#0CAEFF"/>
<stop offset="1" stop-color="#8D00DD"/>
</linearGradient>
<clipPath id="clip0_1978_172">
<rect width="50" height="28.45" fill="white"/>
</clipPath>
</defs>
</svg>
